<svg width="33" height="32" viewBox="0 0 33 32" fill="none" xmlns="http://www.w3.org/2000/svg">
<path d="M20.6603 24.6667C23.0538 24.6667 24.9685 22.7266 24.9369 20.3334C24.9054 17.9402 22.9395 16.0001 20.5461 16.0001C18.1526 16.0001 16.2379 17.9402 16.2695 20.3334C16.301 22.7266 18.2669 24.6667 20.6603 24.6667Z" stroke="#A46428" stroke-width="2" stroke-linecap="round" stroke-linejoin="round"/>
<path d="M11.9358 20.3333C9.54228 20.3333 7.62762 22.2734 7.65918 24.6667C7.69073 27.0599 9.65655 29 12.05 29C14.4435 29 16.3582 27.0599 16.3266 24.6667L16.2695 20.3333H11.9358Z" stroke="#A46428" stroke-width="2" stroke-linecap="round" stroke-linejoin="round"/>
<path d="M20.4889 11.6667C22.8824 11.6667 24.7971 9.72662 24.7655 7.33336C24.734 4.94009 22.7681 3.00002 20.3747 3.00002H16.041L16.1552 11.6667H20.4889Z" stroke="#A46428" stroke-width="2" stroke-linecap="round" stroke-linejoin="round"/>
<path d="M11.7072 3.00002C9.31375 3.00002 7.39909 4.94009 7.43064 7.33336C7.46219 9.72662 9.42801 11.6667 11.8215 11.6667H16.1552L16.0409 3.00002L11.7072 3.00002Z" stroke="#A46428" stroke-width="2" stroke-linecap="round" stroke-linejoin="round"/>
<path d="M11.8215 11.6667C9.42802 11.6667 7.51336 13.6067 7.54491 16C7.57646 18.3933 9.54228 20.3333 11.9358 20.3333H16.2695L16.1552 11.6667H11.8215Z" stroke="#A46428" stroke-width="2" stroke-linecap="round" stroke-linejoin="round"/>
</svg>
