<svg width="15" height="14" viewBox="0 0 15 14" fill="none" xmlns="http://www.w3.org/2000/svg">
<g clip-path="url(#clip0_403_5026)">
<path d="M9.03873 10.7911C10.0858 10.7911 10.9235 9.94233 10.9097 8.89531C10.8959 7.84829 10.0359 6.99951 8.98875 6.99951C7.94163 6.99951 7.10397 7.84829 7.11777 8.89531C7.13158 9.94233 7.99162 10.7911 9.03873 10.7911Z" stroke="#58DC84" stroke-width="1.4" stroke-linecap="round" stroke-linejoin="round"/>
<path d="M5.22188 8.89613C4.17475 8.89613 3.33711 9.74489 3.35091 10.7919C3.36471 11.839 4.22474 12.6877 5.27187 12.6877C6.319 12.6877 7.15664 11.839 7.14284 10.7919L7.11785 8.89613H5.22188Z" stroke="#58DC84" stroke-width="1.4" stroke-linecap="round" stroke-linejoin="round"/>
<path d="M8.96378 5.10419C10.0109 5.10419 10.8486 4.25543 10.8347 3.20839C10.8209 2.16136 9.96092 1.31259 8.91379 1.31259H7.01782L7.06781 5.10419H8.96378Z" stroke="#58DC84" stroke-width="1.4" stroke-linecap="round" stroke-linejoin="round"/>
<path d="M5.12178 1.31259C4.07465 1.31259 3.237 2.16136 3.25081 3.20839C3.26461 4.25543 4.12464 5.10419 5.17177 5.10419H7.06773L7.01774 1.31259H5.12178Z" stroke="#58DC84" stroke-width="1.4" stroke-linecap="round" stroke-linejoin="round"/>
<path d="M5.17183 5.10387C4.1247 5.10387 3.28705 5.95264 3.30086 6.99967C3.31466 8.04671 4.17469 8.89547 5.22182 8.89547H7.11778L7.06779 5.10387H5.17183Z" stroke="#58DC84" stroke-width="1.4" stroke-linecap="round" stroke-linejoin="round"/>
</g>
<defs>
<clipPath id="clip0_403_5026">
<rect width="14" height="14" fill="white" transform="matrix(1.00007 0 0.0131839 0.999983 0 0)"/>
</clipPath>
</defs>
</svg>
