<svg width="16" height="16" viewBox="0 0 16 16" fill="none" xmlns="http://www.w3.org/2000/svg">
<g clip-path="url(#clip0_403_6060)">
<path d="M11.8398 7.39489C11.9677 7.07853 11.9749 6.7134 11.8311 6.37447C11.6872 6.03553 11.4197 5.78697 11.1033 5.6591M9.10468 10.6038C11.1528 11.4316 13.4843 10.4424 14.3122 8.39423C15.14 6.34607 14.1508 4.0146 12.1026 3.18675C10.0544 2.3589 7.72296 3.34816 6.89512 5.39632C6.82674 5.56548 6.77077 5.73657 6.72676 5.90858C6.65437 6.1915 6.61818 6.33296 6.57173 6.41294C6.52334 6.49625 6.48798 6.5374 6.41288 6.59775C6.34078 6.65569 6.23725 6.69962 6.03019 6.78748L1.59472 8.66948C1.44461 8.73318 1.36956 8.76502 1.30612 8.81195C1.24988 8.85355 1.20054 8.90375 1.15991 8.96069C1.11408 9.02493 1.08352 9.10052 1.02242 9.25169L0.588407 10.3255C0.448491 10.6716 0.378533 10.8447 0.39246 11.0042C0.404711 11.1444 0.461047 11.2772 0.553396 11.3834C0.658383 11.5043 0.831464 11.5742 1.17762 11.7141L2.66103 12.3137L3.16069 11.0775L4.39686 11.5772L4.89651 10.341L6.13268 10.8407L7.50323 10.2591C7.7103 10.1713 7.81383 10.1273 7.90559 10.1158C8.00118 10.1037 8.05534 10.1069 8.14888 10.1299C8.23867 10.1521 8.36555 10.2244 8.61931 10.3689C8.77359 10.4568 8.93553 10.5354 9.10468 10.6038Z" stroke="white" stroke-width="2" stroke-linecap="round" stroke-linejoin="round"/>
</g>
<defs>
<clipPath id="clip0_403_6060">
<rect width="16" height="16" fill="white"/>
</clipPath>
</defs>
</svg>
