<svg width="33" height="32" viewBox="0 0 33 32" fill="none" xmlns="http://www.w3.org/2000/svg">
<path d="M20.6603 24.6667C23.0538 24.6667 24.9684 22.7266 24.9369 20.3333C24.9053 17.9401 22.9395 16 20.5461 16C18.1526 16 16.2379 17.9401 16.2695 20.3333C16.301 22.7266 18.2669 24.6667 20.6603 24.6667Z" stroke="#A46428" stroke-width="2" stroke-linecap="round" stroke-linejoin="round"/>
<path d="M11.9358 20.3333C9.54234 20.3333 7.62768 22.2734 7.65923 24.6667C7.69078 27.0599 9.6566 29 12.0501 29C14.4435 29 16.3582 27.0599 16.3267 24.6667L16.2695 20.3333H11.9358Z" stroke="#A46428" stroke-width="2" stroke-linecap="round" stroke-linejoin="round"/>
<path d="M20.4889 11.6667C22.8824 11.6667 24.797 9.72659 24.7655 7.33332C24.7339 4.94005 22.7681 2.99999 20.3747 2.99999H16.0409L16.1552 11.6667H20.4889Z" stroke="#A46428" stroke-width="2" stroke-linecap="round" stroke-linejoin="round"/>
<path d="M11.7073 2.99999C9.3138 2.99999 7.39914 4.94005 7.4307 7.33332C7.46225 9.72659 9.42806 11.6667 11.8215 11.6667H16.1552L16.041 2.99999L11.7073 2.99999Z" stroke="#A46428" stroke-width="2" stroke-linecap="round" stroke-linejoin="round"/>
<path d="M11.8215 11.6667C9.42807 11.6667 7.51341 13.6067 7.54496 16C7.57652 18.3933 9.54233 20.3333 11.9358 20.3333H16.2695L16.1553 11.6667H11.8215Z" stroke="#A46428" stroke-width="2" stroke-linecap="round" stroke-linejoin="round"/>
</svg>
