<svg width="64" height="64" viewBox="0 0 64 64" fill="none" xmlns="http://www.w3.org/2000/svg">
<path d="M32 12C30.7623 12 29.5753 12.4917 28.7002 13.3668C27.825 14.242 27.3333 15.429 27.3333 16.6667C27.3333 17.9043 27.825 19.0913 28.7002 19.9665C29.5753 20.8417 30.7623 21.3333 32 21.3333C33.2377 21.3333 34.4247 20.8417 35.2998 19.9665C36.175 19.0913 36.6667 17.9043 36.6667 16.6667C36.6667 15.429 36.175 14.242 35.2998 13.3668C34.4247 12.4917 33.2377 12 32 12ZM23.3333 16.6667C23.3333 14.3681 24.2464 12.1637 25.8717 10.5384C27.4971 8.91309 29.7015 8 32 8C34.2985 8 36.5029 8.91309 38.1283 10.5384C39.7536 12.1637 40.6667 14.3681 40.6667 16.6667C40.6667 18.9652 39.7536 21.1696 38.1283 22.7949C36.5029 24.4202 34.2985 25.3333 32 25.3333C29.7015 25.3333 27.4971 24.4202 25.8717 22.7949C24.2464 21.1696 23.3333 18.9652 23.3333 16.6667ZM13.3333 17.3333C12.2725 17.3333 11.255 17.7548 10.5049 18.5049C9.75476 19.2551 9.33333 20.2725 9.33333 21.3333C9.33333 22.3942 9.75476 23.4116 10.5049 24.1618C11.255 24.9119 12.2725 25.3333 13.3333 25.3333C14.3942 25.3333 15.4116 24.9119 16.1618 24.1618C16.9119 23.4116 17.3333 22.3942 17.3333 21.3333C17.3333 20.2725 16.9119 19.2551 16.1618 18.5049C15.4116 17.7548 14.3942 17.3333 13.3333 17.3333ZM5.33333 21.3333C5.33333 19.2116 6.17618 17.1768 7.67647 15.6765C9.17677 14.1762 11.2116 13.3333 13.3333 13.3333C15.4551 13.3333 17.4899 14.1762 18.9902 15.6765C20.4905 17.1768 21.3333 19.2116 21.3333 21.3333C21.3333 23.4551 20.4905 25.4899 18.9902 26.9902C17.4899 28.4905 15.4551 29.3333 13.3333 29.3333C11.2116 29.3333 9.17677 28.4905 7.67647 26.9902C6.17618 25.4899 5.33333 23.4551 5.33333 21.3333ZM46.6667 21.3333C46.6667 20.2725 47.0881 19.2551 47.8382 18.5049C48.5884 17.7548 49.6058 17.3333 50.6667 17.3333C51.7275 17.3333 52.7449 17.7548 53.4951 18.5049C54.2452 19.2551 54.6667 20.2725 54.6667 21.3333C54.6667 22.3942 54.2452 23.4116 53.4951 24.1618C52.7449 24.9119 51.7275 25.3333 50.6667 25.3333C49.6058 25.3333 48.5884 24.9119 47.8382 24.1618C47.0881 23.4116 46.6667 22.3942 46.6667 21.3333ZM50.6667 13.3333C48.5449 13.3333 46.5101 14.1762 45.0098 15.6765C43.5095 17.1768 42.6667 19.2116 42.6667 21.3333C42.6667 23.4551 43.5095 25.4899 45.0098 26.9902C46.5101 28.4905 48.5449 29.3333 50.6667 29.3333C52.7884 29.3333 54.8232 28.4905 56.3235 26.9902C57.8238 25.4899 58.6667 23.4551 58.6667 21.3333C58.6667 19.2116 57.8238 17.1768 56.3235 15.6765C54.8232 14.1762 52.7884 13.3333 50.6667 13.3333ZM20 34C20 31.424 22.0907 29.3333 24.6667 29.3333H39.3333C41.9093 29.3333 44 31.424 44 34V44C44 47.1826 42.7357 50.2348 40.4853 52.4853C38.2348 54.7357 35.1826 56 32 56C28.8174 56 25.7652 54.7357 23.5147 52.4853C21.2643 50.2348 20 47.1826 20 44V34ZM24.6667 33.3333C24.4899 33.3333 24.3203 33.4036 24.1953 33.5286C24.0702 33.6536 24 33.8232 24 34V44C24 46.1217 24.8428 48.1566 26.3431 49.6569C27.8434 51.1571 29.8783 52 32 52C34.1217 52 36.1566 51.1571 37.6569 49.6569C39.1571 48.1566 40 46.1217 40 44V34C40 33.8232 39.9298 33.6536 39.8047 33.5286C39.6797 33.4036 39.5101 33.3333 39.3333 33.3333H24.6667ZM17.6267 31.9413C17.4329 32.5973 17.3351 33.2836 17.3333 34V36.16L9.82933 38.1707C9.65854 38.2163 9.51288 38.3279 9.42436 38.4809C9.33585 38.634 9.31174 38.8159 9.35733 38.9867L11.256 46.072C11.743 47.8895 12.855 49.4772 14.3967 50.5561C15.9384 51.6349 17.8109 52.1358 19.6853 51.9707C20.5253 53.2667 21.5653 54.4213 22.76 55.3893C21.2082 55.9039 19.5676 56.0959 17.9389 55.9536C16.3102 55.8113 14.7278 55.3377 13.2887 54.5618C11.8496 53.786 10.5843 52.7243 9.57026 51.4418C8.55626 50.1594 7.81501 48.6832 7.392 47.104L5.49333 40.0213C5.1732 38.8261 5.34086 37.5527 5.95944 36.481C6.57802 35.4094 7.59689 34.6273 8.79199 34.3067L17.6267 31.9413ZM41.24 55.3893C41.4622 55.464 41.6871 55.5316 41.9147 55.592C44.9887 56.4154 48.2639 55.9841 51.0199 54.3928C53.7759 52.8015 55.7869 50.1806 56.6107 47.1067L58.5093 40.024C58.6682 39.432 58.709 38.8145 58.6292 38.2067C58.5494 37.599 58.3507 37.0129 58.0444 36.482C57.738 35.9511 57.3301 35.4857 56.8439 35.1125C56.3577 34.7392 55.8027 34.4654 55.2107 34.3067L46.3733 31.9387C46.5671 32.5964 46.6649 33.2836 46.6667 34V36.16L54.176 38.1707C54.3463 38.2169 54.4913 38.3287 54.5793 38.4817C54.6673 38.6346 54.691 38.8162 54.6453 38.9867L52.7467 46.072C52.2596 47.89 51.1471 49.4781 49.6049 50.557C48.0627 51.6358 46.1895 52.1364 44.3147 51.9707C43.4759 53.2648 42.4382 54.4185 41.24 55.3893Z" fill="#2510DF"/>
</svg>
