<svg width="64" height="64" viewBox="0 0 64 64" fill="none" xmlns="http://www.w3.org/2000/svg">
<path d="M32 12C30.7624 12 29.5754 12.4917 28.7002 13.3668C27.825 14.242 27.3334 15.429 27.3334 16.6667C27.3334 17.9043 27.825 19.0913 28.7002 19.9665C29.5754 20.8417 30.7624 21.3333 32 21.3333C33.2377 21.3333 34.4247 20.8417 35.2999 19.9665C36.175 19.0913 36.6667 17.9043 36.6667 16.6667C36.6667 15.429 36.175 14.242 35.2999 13.3668C34.4247 12.4917 33.2377 12 32 12ZM23.3334 16.6667C23.3334 14.3681 24.2465 12.1637 25.8718 10.5384C27.4971 8.91309 29.7015 8 32 8C34.2986 8 36.503 8.91309 38.1283 10.5384C39.7536 12.1637 40.6667 14.3681 40.6667 16.6667C40.6667 18.9652 39.7536 21.1696 38.1283 22.7949C36.503 24.4202 34.2986 25.3333 32 25.3333C29.7015 25.3333 27.4971 24.4202 25.8718 22.7949C24.2465 21.1696 23.3334 18.9652 23.3334 16.6667ZM13.3334 17.3333C12.2725 17.3333 11.2551 17.7548 10.5049 18.5049C9.7548 19.2551 9.33337 20.2725 9.33337 21.3333C9.33337 22.3942 9.7548 23.4116 10.5049 24.1618C11.2551 24.9119 12.2725 25.3333 13.3334 25.3333C14.3942 25.3333 15.4117 24.9119 16.1618 24.1618C16.9119 23.4116 17.3334 22.3942 17.3334 21.3333C17.3334 20.2725 16.9119 19.2551 16.1618 18.5049C15.4117 17.7548 14.3942 17.3333 13.3334 17.3333ZM5.33337 21.3333C5.33337 19.2116 6.17623 17.1768 7.67652 15.6765C9.17681 14.1762 11.2116 13.3333 13.3334 13.3333C15.4551 13.3333 17.4899 14.1762 18.9902 15.6765C20.4905 17.1768 21.3334 19.2116 21.3334 21.3333C21.3334 23.4551 20.4905 25.4899 18.9902 26.9902C17.4899 28.4905 15.4551 29.3333 13.3334 29.3333C11.2116 29.3333 9.17681 28.4905 7.67652 26.9902C6.17623 25.4899 5.33337 23.4551 5.33337 21.3333ZM46.6667 21.3333C46.6667 20.2725 47.0881 19.2551 47.8383 18.5049C48.5884 17.7548 49.6058 17.3333 50.6667 17.3333C51.7276 17.3333 52.745 17.7548 53.4951 18.5049C54.2453 19.2551 54.6667 20.2725 54.6667 21.3333C54.6667 22.3942 54.2453 23.4116 53.4951 24.1618C52.745 24.9119 51.7276 25.3333 50.6667 25.3333C49.6058 25.3333 48.5884 24.9119 47.8383 24.1618C47.0881 23.4116 46.6667 22.3942 46.6667 21.3333ZM50.6667 13.3333C48.545 13.3333 46.5101 14.1762 45.0099 15.6765C43.5096 17.1768 42.6667 19.2116 42.6667 21.3333C42.6667 23.4551 43.5096 25.4899 45.0099 26.9902C46.5101 28.4905 48.545 29.3333 50.6667 29.3333C52.7884 29.3333 54.8233 28.4905 56.3236 26.9902C57.8239 25.4899 58.6667 23.4551 58.6667 21.3333C58.6667 19.2116 57.8239 17.1768 56.3236 15.6765C54.8233 14.1762 52.7884 13.3333 50.6667 13.3333ZM20 34C20 31.424 22.0907 29.3333 24.6667 29.3333H39.3334C41.9094 29.3333 44 31.424 44 34V44C44 47.1826 42.7358 50.2348 40.4853 52.4853C38.2349 54.7357 35.1826 56 32 56C28.8174 56 25.7652 54.7357 23.5148 52.4853C21.2643 50.2348 20 47.1826 20 44V34ZM24.6667 33.3333C24.4899 33.3333 24.3203 33.4036 24.1953 33.5286C24.0703 33.6536 24 33.8232 24 34V44C24 46.1217 24.8429 48.1566 26.3432 49.6569C27.8435 51.1571 29.8783 52 32 52C34.1218 52 36.1566 51.1571 37.6569 49.6569C39.1572 48.1566 40 46.1217 40 44V34C40 33.8232 39.9298 33.6536 39.8048 33.5286C39.6798 33.4036 39.5102 33.3333 39.3334 33.3333H24.6667ZM17.6267 31.9413C17.4329 32.5973 17.3352 33.2836 17.3334 34V36.16L9.82937 38.1707C9.65859 38.2163 9.51292 38.3279 9.42441 38.4809C9.3359 38.634 9.31178 38.8159 9.35737 38.9867L11.256 46.072C11.743 47.8895 12.8551 49.4772 14.3967 50.5561C15.9384 51.6349 17.811 52.1358 19.6854 51.9707C20.5254 53.2667 21.5654 54.4213 22.76 55.3893C21.2082 55.9039 19.5676 56.0959 17.9389 55.9536C16.3103 55.8113 14.7278 55.3377 13.2887 54.5618C11.8497 53.786 10.5843 52.7243 9.5703 51.4418C8.5563 50.1594 7.81505 48.6832 7.39204 47.104L5.49337 40.0213C5.17324 38.8261 5.3409 37.5527 5.95949 36.481C6.57807 35.4094 7.59693 34.6273 8.79204 34.3067L17.6267 31.9413ZM41.24 55.3893C41.4623 55.464 41.6872 55.5316 41.9147 55.592C44.9887 56.4154 48.264 55.9841 51.02 54.3928C53.776 52.8015 55.787 50.1806 56.6107 47.1067L58.5094 40.024C58.6683 39.432 58.709 38.8145 58.6292 38.2067C58.5495 37.599 58.3507 37.0129 58.0444 36.482C57.7381 35.9511 57.3302 35.4857 56.8439 35.1125C56.3577 34.7392 55.8028 34.4654 55.2107 34.3067L46.3734 31.9387C46.5672 32.5964 46.6649 33.2836 46.6667 34V36.16L54.176 38.1707C54.3463 38.2169 54.4914 38.3287 54.5793 38.4817C54.6673 38.6346 54.6911 38.8162 54.6454 38.9867L52.7467 46.072C52.2597 47.89 51.1472 49.4781 49.605 50.557C48.0628 51.6358 46.1895 52.1364 44.3147 51.9707C43.4759 53.2648 42.4383 54.4185 41.24 55.3893Z" fill="#2510DF"/>
</svg>
