<svg width="444" height="444" viewBox="0 0 444 444" fill="none" xmlns="http://www.w3.org/2000/svg">
<path d="M407 37H388.5V55.5H407V37ZM388.5 55.5H370V74H388.5V55.5ZM370 74H296V92.5H370V74ZM296 55.5H259V74H296V55.5ZM259 37H240.5V55.5H259V37ZM240.5 18.5H203.5V37H240.5V18.5ZM203.5 37H185V55.5H203.5V37ZM185 55.5H148V74H185V55.5ZM148 74H74V92.5H148V74ZM74 55.5H55.5V74H74V55.5ZM55.5 37H37V55.5H55.5V37ZM55.5 259H37V296H55.5V259ZM74 296H55.5V333H74V296ZM92.5 333H74V351.5H92.5V333ZM129.5 351.5H92.5V370H129.5V351.5ZM166.5 370H129.5V388.5H166.5V370ZM203.5 388.5H166.5V407H203.5V388.5ZM240.5 407H203.5V425.5H240.5V407ZM277.5 388.5H240.5V407H277.5V388.5ZM314.5 370H277.5V388.5H314.5V370ZM351.5 351.5H314.5V370H351.5V351.5ZM370 333H351.5V351.5H370V333ZM388.5 296H370V333H388.5V296ZM407 259H388.5V296H407V259ZM425.5 55.5H407V259H425.5V55.5ZM37 55.5H18.5V259H37V55.5Z" fill="#4D77FF" fill-opacity="0.24"/>
<path d="M370 92.5V111H296V92.5H259V74H240.5V55.5H203.5V74H185V92.5H148V111H74V92.5H55.5V259H74V296H92.5V333H129.5V351.5H166.5V370H203.5V388.5H240.5V370H277.5V351.5H314.5V333H351.5V296H370V259H388.5V92.5H370ZM185 314.5V277.5H203.5V222H185V166.5H203.5V148H240.5V166.5H259V222H240.5V277.5H259V314.5H185Z" fill="#4D77FF" fill-opacity="0.24"/>
</svg>
