<svg width="32" height="32" viewBox="0 0 32 32" fill="none" xmlns="http://www.w3.org/2000/svg">
<path fill-rule="evenodd" clip-rule="evenodd" d="M16 31.9999C24.8365 31.9999 32 24.8365 32 16C32 7.16344 24.8365 0 16 0C7.16342 0 0 7.16344 0 16C0 24.8365 7.16342 31.9999 16 31.9999ZM20.9914 7.45346C21.2344 6.59043 20.3969 6.0801 19.632 6.62503L8.95448 14.2316C8.12496 14.8226 8.25544 16 9.15048 16H11.9622V15.9782H17.442L12.977 17.5536L11.0086 24.5465C10.7656 25.4095 11.603 25.9199 12.368 25.3749L23.0455 17.7684C23.875 17.1774 23.7445 16 22.8495 16L18.5857 16L20.9914 7.45346Z" fill="#94A3B8"/>
</svg>
