<svg width="25" height="24" viewBox="0 0 25 24" fill="none" xmlns="http://www.w3.org/2000/svg">
<path d="M15.4952 18.5C17.2902 18.5 18.7262 17.0449 18.7026 15.25C18.6789 13.4551 17.2045 12 15.4095 12C13.6144 12 12.1784 13.4551 12.202 15.25C12.2257 17.0449 13.7001 18.5 15.4952 18.5Z" stroke="#58DC84" stroke-width="2" stroke-linecap="round" stroke-linejoin="round"/>
<path d="M8.95178 15.2498C7.15668 15.2498 5.7207 16.7048 5.74436 18.4998C5.76803 20.2947 7.24238 21.7497 9.03747 21.7497C10.8326 21.7497 12.2686 20.2947 12.2449 18.4998L12.202 15.2498H8.95178Z" stroke="#58DC84" stroke-width="2" stroke-linecap="round" stroke-linejoin="round"/>
<path d="M15.3666 8.75015C17.1617 8.75015 18.5977 7.29511 18.574 5.50017C18.5504 3.70523 17.076 2.25018 15.2809 2.25018H12.0306L12.1163 8.75015H15.3666Z" stroke="#58DC84" stroke-width="2" stroke-linecap="round" stroke-linejoin="round"/>
<path d="M8.78038 2.25018C6.98528 2.25018 5.5493 3.70523 5.57296 5.50017C5.59663 7.29511 7.07098 8.75015 8.86607 8.75015H12.1163L12.0306 2.25018H8.78038Z" stroke="#58DC84" stroke-width="2" stroke-linecap="round" stroke-linejoin="round"/>
<path d="M8.86608 8.74974C7.07098 8.74974 5.635 10.2048 5.65866 11.9997C5.68233 13.7947 7.15668 15.2497 8.95177 15.2497H12.202L12.1163 8.74974H8.86608Z" stroke="#58DC84" stroke-width="2" stroke-linecap="round" stroke-linejoin="round"/>
</svg>
