<svg width="33" height="32" viewBox="0 0 33 32" fill="none" xmlns="http://www.w3.org/2000/svg">
<path d="M20.6604 24.6667C23.0539 24.6667 24.9686 22.7266 24.937 20.3334C24.9055 17.9401 22.9396 16 20.5462 16C18.1527 16 16.238 17.9401 16.2696 20.3334C16.3011 22.7266 18.267 24.6667 20.6604 24.6667Z" stroke="#A46428" stroke-width="2" stroke-linecap="round" stroke-linejoin="round"/>
<path d="M11.9359 20.3334C9.54238 20.3334 7.62771 22.2735 7.65927 24.6668C7.69082 27.06 9.65664 29.0001 12.0501 29.0001C14.4436 29.0001 16.3583 27.06 16.3267 24.6668L16.2696 20.3334H11.9359Z" stroke="#A46428" stroke-width="2" stroke-linecap="round" stroke-linejoin="round"/>
<path d="M20.489 11.6665C22.8825 11.6665 24.7972 9.72642 24.7656 7.33314C24.7341 4.93986 22.7682 2.99979 20.3747 2.99979H16.041L16.1553 11.6665H20.489Z" stroke="#A46428" stroke-width="2" stroke-linecap="round" stroke-linejoin="round"/>
<path d="M11.7073 2.99979C9.31384 2.99979 7.39918 4.93986 7.43073 7.33314C7.46228 9.72642 9.42811 11.6665 11.8216 11.6665H16.1553L16.0411 2.99979L11.7073 2.99979Z" stroke="#A46428" stroke-width="2" stroke-linecap="round" stroke-linejoin="round"/>
<path d="M11.8216 11.6666C9.42811 11.6666 7.51345 13.6067 7.545 15.9999C7.57655 18.3932 9.54238 20.3333 11.9359 20.3333H16.2696L16.1553 11.6666H11.8216Z" stroke="#A46428" stroke-width="2" stroke-linecap="round" stroke-linejoin="round"/>
</svg>
