<svg width="20" height="20" viewBox="0 0 20 20" fill="none" xmlns="http://www.w3.org/2000/svg">
<path d="M14.1666 16.6667H18.3333V15C18.3333 13.6193 17.214 12.5 15.8333 12.5C15.037 12.5 14.3276 12.8724 13.8698 13.4525M14.1666 16.6667H5.83329M14.1666 16.6667V15C14.1666 14.4532 14.0613 13.9309 13.8698 13.4525M5.83329 16.6667H1.66663V15C1.66663 13.6193 2.78591 12.5 4.16663 12.5C4.96297 12.5 5.67234 12.8724 6.13016 13.4525M5.83329 16.6667V15C5.83329 14.4532 5.93865 13.9309 6.13016 13.4525M6.13016 13.4525C6.74454 11.9176 8.24564 10.8334 9.99996 10.8334C11.7543 10.8334 13.2554 11.9176 13.8698 13.4525M12.5 5.83337C12.5 7.21409 11.3807 8.33337 9.99996 8.33337C8.61925 8.33337 7.49996 7.21409 7.49996 5.83337C7.49996 4.45266 8.61925 3.33337 9.99996 3.33337C11.3807 3.33337 12.5 4.45266 12.5 5.83337ZM17.5 8.33337C17.5 9.25385 16.7538 10 15.8333 10C14.9128 10 14.1666 9.25385 14.1666 8.33337C14.1666 7.4129 14.9128 6.66671 15.8333 6.66671C16.7538 6.66671 17.5 7.4129 17.5 8.33337ZM5.83329 8.33337C5.83329 9.25385 5.0871 10 4.16663 10C3.24615 10 2.49996 9.25385 2.49996 8.33337C2.49996 7.4129 3.24615 6.66671 4.16663 6.66671C5.0871 6.66671 5.83329 7.4129 5.83329 8.33337Z" stroke="white" stroke-width="2" stroke-linecap="round" stroke-linejoin="round"/>
</svg>
