<svg width="32" height="32" viewBox="0 0 32 32" fill="none" xmlns="http://www.w3.org/2000/svg">
<g clip-path="url(#clip0_559_2016)">
<path d="M16.0001 0.422638C17.1271 0.422638 18.1334 0.704399 19.0189 1.26792C19.9045 1.83144 20.6089 2.5761 21.1321 3.50188C22.1384 3.22012 23.1648 3.2 24.2114 3.44151C25.2177 3.64276 26.1233 4.14591 26.9284 4.95094C27.7334 5.75597 28.2365 6.68176 28.4378 7.7283C28.6793 8.73459 28.6592 9.74088 28.3774 10.7472C29.3032 11.2704 30.0479 11.9748 30.6114 12.8604C31.1749 13.7459 31.4567 14.7522 31.4567 15.8792C31.4567 17.0063 31.1749 18.0126 30.6114 18.8981C30.0479 19.7836 29.3032 20.488 28.3774 21.0113C28.6592 22.0176 28.6793 23.044 28.4378 24.0906C28.2365 25.0969 27.7334 26.0025 26.9284 26.8075C26.1233 27.6126 25.2177 28.1157 24.2114 28.317C23.1648 28.5585 22.1384 28.5384 21.1321 28.2566C20.6089 29.1824 19.9045 29.927 19.0189 30.4906C18.1334 31.0541 17.1271 31.3358 16.0001 31.3358C14.873 31.3358 13.8667 31.0541 12.9812 30.4906C12.0957 29.927 11.3913 29.1824 10.868 28.2566C9.8617 28.5384 8.83528 28.5585 7.78874 28.317C6.78245 28.1157 5.87679 27.6126 5.07176 26.8075C4.26673 26.0025 3.76358 25.0969 3.56233 24.0906C3.32082 23.044 3.34094 22.0176 3.6227 21.0113C2.69692 20.488 1.95226 19.7836 1.38874 18.8981C0.825218 18.0126 0.543457 17.0063 0.543457 15.8792C0.543457 14.7522 0.825218 13.7459 1.38874 12.8604C1.95226 11.9748 2.69692 11.2704 3.6227 10.7472C3.34094 9.74088 3.32082 8.71446 3.56233 7.66792C3.76358 6.66163 4.26673 5.75597 5.07176 4.95094C5.87679 4.14591 6.80258 3.64276 7.84912 3.44151C8.85541 3.2 9.8617 3.22012 10.868 3.50188C11.3913 2.5761 12.0957 1.83144 12.9812 1.26792C13.8667 0.704399 14.873 0.422638 16.0001 0.422638ZM22.8227 13.0415C23.3862 12.3572 23.3862 11.673 22.8227 10.9887C22.1384 10.4252 21.4541 10.4252 20.7699 10.9887L14.068 17.6906L11.2302 14.8528C10.546 14.2893 9.8617 14.2893 9.17742 14.8528C8.6139 15.5371 8.6139 16.2214 9.17742 16.9057L13.0416 20.7698C13.7258 21.3333 14.4101 21.3333 15.0944 20.7698L22.8227 13.0415Z" fill="#FE8953"/>
</g>
<defs>
<clipPath id="clip0_559_2016">
<rect width="32" height="32" fill="white" transform="matrix(1 0 0 -1 0 32)"/>
</clipPath>
</defs>
</svg>
