<svg width="16" height="16" viewBox="0 0 16 16" fill="none" xmlns="http://www.w3.org/2000/svg">
<g clip-path="url(#clip0_559_2552)">
<path d="M11.8399 7.39489C11.9678 7.07853 11.975 6.7134 11.8312 6.37447C11.6874 6.03553 11.4198 5.78697 11.1034 5.6591M9.10481 10.6038C11.153 11.4316 13.4844 10.4424 14.3123 8.39423C15.1401 6.34607 14.1509 4.0146 12.1027 3.18675C10.0546 2.3589 7.72309 3.34816 6.89524 5.39632C6.82687 5.56548 6.77089 5.73657 6.72688 5.90858C6.65449 6.1915 6.6183 6.33296 6.57185 6.41294C6.52346 6.49625 6.4881 6.5374 6.413 6.59775C6.34091 6.65569 6.23737 6.69962 6.03031 6.78748L1.59484 8.66948C1.44473 8.73318 1.36968 8.76502 1.30624 8.81195C1.25 8.85355 1.20066 8.90375 1.16003 8.96069C1.1142 9.02493 1.08365 9.10052 1.02254 9.25169L0.588529 10.3255C0.448613 10.6716 0.378655 10.8447 0.392582 11.0042C0.404833 11.1444 0.46117 11.2772 0.553518 11.3834C0.658505 11.5043 0.831586 11.5742 1.17775 11.7141L2.66116 12.3137L3.16081 11.0775L4.39698 11.5772L4.89663 10.341L6.13281 10.8407L7.50336 10.2591C7.71042 10.1713 7.81395 10.1273 7.90571 10.1158C8.0013 10.1037 8.05546 10.1069 8.149 10.1299C8.2388 10.1521 8.36567 10.2244 8.61943 10.3689C8.77371 10.4568 8.93565 10.5354 9.10481 10.6038Z" stroke="white" stroke-width="2" stroke-linecap="round" stroke-linejoin="round"/>
</g>
<defs>
<clipPath id="clip0_559_2552">
<rect width="16" height="16" fill="white"/>
</clipPath>
</defs>
</svg>
