<svg width="33" height="32" viewBox="0 0 33 32" fill="none" xmlns="http://www.w3.org/2000/svg">
<path d="M20.6603 24.6667C23.0538 24.6667 24.9684 22.7266 24.9369 20.3333C24.9053 17.9401 22.9395 16 20.5461 16C18.1526 16 16.2379 17.9401 16.2695 20.3333C16.301 22.7266 18.2669 24.6667 20.6603 24.6667Z" stroke="#A46428" stroke-width="2" stroke-linecap="round" stroke-linejoin="round"/>
<path d="M11.9357 20.3333C9.54227 20.3333 7.62762 22.2734 7.65917 24.6667C7.69072 27.0599 9.65654 29 12.05 29C14.4435 29 16.3581 27.0599 16.3266 24.6667L16.2695 20.3333H11.9357Z" stroke="#A46428" stroke-width="2" stroke-linecap="round" stroke-linejoin="round"/>
<path d="M20.4889 11.6667C22.8824 11.6667 24.797 9.72659 24.7655 7.33332C24.7339 4.94005 22.7681 2.99999 20.3747 2.99999H16.0409L16.1552 11.6667H20.4889Z" stroke="#A46428" stroke-width="2" stroke-linecap="round" stroke-linejoin="round"/>
<path d="M11.7072 2.99999C9.31374 2.99999 7.39908 4.94005 7.43063 7.33332C7.46219 9.72659 9.428 11.6667 11.8215 11.6667H16.1552L16.0409 2.99999L11.7072 2.99999Z" stroke="#A46428" stroke-width="2" stroke-linecap="round" stroke-linejoin="round"/>
<path d="M11.8215 11.6667C9.42801 11.6667 7.51335 13.6067 7.5449 16C7.57646 18.3933 9.54227 20.3333 11.9357 20.3333H16.2695L16.1552 11.6667H11.8215Z" stroke="#A46428" stroke-width="2" stroke-linecap="round" stroke-linejoin="round"/>
</svg>
