<svg width="40" height="40" viewBox="0 0 40 40" fill="none" xmlns="http://www.w3.org/2000/svg">
<path d="M20 7.5C19.2264 7.5 18.4846 7.80729 17.9376 8.35427C17.3906 8.90125 17.0833 9.64312 17.0833 10.4167C17.0833 11.1902 17.3906 11.9321 17.9376 12.4791C18.4846 13.026 19.2264 13.3333 20 13.3333C20.7735 13.3333 21.5154 13.026 22.0624 12.4791C22.6094 11.9321 22.9166 11.1902 22.9166 10.4167C22.9166 9.64312 22.6094 8.90125 22.0624 8.35427C21.5154 7.80729 20.7735 7.5 20 7.5ZM14.5833 10.4167C14.5833 8.98008 15.154 7.60233 16.1698 6.5865C17.1856 5.57068 18.5634 5 20 5C21.4366 5 22.8143 5.57068 23.8301 6.5865C24.846 7.60233 25.4166 8.98008 25.4166 10.4167C25.4166 11.8533 24.846 13.231 23.8301 14.2468C22.8143 15.2627 21.4366 15.8333 20 15.8333C18.5634 15.8333 17.1856 15.2627 16.1698 14.2468C15.154 13.231 14.5833 11.8533 14.5833 10.4167ZM8.33331 10.8333C7.67027 10.8333 7.03439 11.0967 6.56555 11.5656C6.09671 12.0344 5.83331 12.6703 5.83331 13.3333C5.83331 13.9964 6.09671 14.6323 6.56555 15.1011C7.03439 15.5699 7.67027 15.8333 8.33331 15.8333C8.99635 15.8333 9.63224 15.5699 10.1011 15.1011C10.5699 14.6323 10.8333 13.9964 10.8333 13.3333C10.8333 12.6703 10.5699 12.0344 10.1011 11.5656C9.63224 11.0967 8.99635 10.8333 8.33331 10.8333ZM3.33331 13.3333C3.33331 12.0073 3.8601 10.7355 4.79778 9.7978C5.73546 8.86012 7.00723 8.33333 8.33331 8.33333C9.6594 8.33333 10.9312 8.86012 11.8688 9.7978C12.8065 10.7355 13.3333 12.0073 13.3333 13.3333C13.3333 14.6594 12.8065 15.9312 11.8688 16.8689C10.9312 17.8066 9.6594 18.3333 8.33331 18.3333C7.00723 18.3333 5.73546 17.8066 4.79778 16.8689C3.8601 15.9312 3.33331 14.6594 3.33331 13.3333ZM29.1666 13.3333C29.1666 12.6703 29.43 12.0344 29.8989 11.5656C30.3677 11.0967 31.0036 10.8333 31.6666 10.8333C32.3297 10.8333 32.9656 11.0967 33.4344 11.5656C33.9033 12.0344 34.1666 12.6703 34.1666 13.3333C34.1666 13.9964 33.9033 14.6323 33.4344 15.1011C32.9656 15.5699 32.3297 15.8333 31.6666 15.8333C31.0036 15.8333 30.3677 15.5699 29.8989 15.1011C29.43 14.6323 29.1666 13.9964 29.1666 13.3333ZM31.6666 8.33333C30.3406 8.33333 29.0688 8.86012 28.1311 9.7978C27.1934 10.7355 26.6666 12.0073 26.6666 13.3333C26.6666 14.6594 27.1934 15.9312 28.1311 16.8689C29.0688 17.8066 30.3406 18.3333 31.6666 18.3333C32.9927 18.3333 34.2645 17.8066 35.2022 16.8689C36.1399 15.9312 36.6666 14.6594 36.6666 13.3333C36.6666 12.0073 36.1399 10.7355 35.2022 9.7978C34.2645 8.86012 32.9927 8.33333 31.6666 8.33333ZM12.5 21.25C12.5 19.64 13.8066 18.3333 15.4166 18.3333H24.5833C26.1933 18.3333 27.5 19.64 27.5 21.25V27.5C27.5 29.4891 26.7098 31.3968 25.3033 32.8033C23.8968 34.2098 21.9891 35 20 35C18.0109 35 16.1032 34.2098 14.6967 32.8033C13.2902 31.3968 12.5 29.4891 12.5 27.5V21.25ZM15.4166 20.8333C15.3061 20.8333 15.2002 20.8772 15.122 20.9554C15.0439 21.0335 15 21.1395 15 21.25V27.5C15 28.8261 15.5268 30.0979 16.4644 31.0355C17.4021 31.9732 18.6739 32.5 20 32.5C21.3261 32.5 22.5978 31.9732 23.5355 31.0355C24.4732 30.0979 25 28.8261 25 27.5V21.25C25 21.1395 24.9561 21.0335 24.8779 20.9554C24.7998 20.8772 24.6938 20.8333 24.5833 20.8333H15.4166ZM11.0166 19.9633C10.8955 20.3733 10.8344 20.8022 10.8333 21.25V22.6L6.14331 23.8567C6.03657 23.8852 5.94553 23.9549 5.89021 24.0506C5.83489 24.1462 5.81982 24.2599 5.84831 24.3667L7.03498 28.795C7.33935 29.931 8.03438 30.9233 8.99792 31.5975C9.96145 32.2718 11.1318 32.5849 12.3033 32.4817C12.8283 33.2917 13.4783 34.0133 14.225 34.6183C13.2551 34.9399 12.2297 35.0599 11.2118 34.971C10.1939 34.8821 9.20484 34.586 8.30542 34.1011C7.406 33.6162 6.61514 32.9527 5.98139 32.1511C5.34764 31.3496 4.88436 30.427 4.61998 29.44L3.43331 25.0133C3.23323 24.2663 3.33802 23.4704 3.72463 22.8006C4.11125 22.1309 4.74804 21.642 5.49498 21.4417L11.0166 19.9633ZM25.775 34.6183C25.9139 34.665 26.0544 34.7072 26.1966 34.745C28.1179 35.2596 30.1649 34.99 31.8874 33.9955C33.6099 33.0009 34.8668 31.3629 35.3816 29.4417L36.5683 25.015C36.6676 24.645 36.6931 24.2591 36.6432 23.8792C36.5934 23.4994 36.4692 23.1331 36.2777 22.8013C36.0863 22.4694 35.8313 22.1786 35.5274 21.9453C35.2235 21.712 34.8767 21.5409 34.5066 21.4417L28.9833 19.9617C29.1044 20.3728 29.1655 20.8022 29.1666 21.25V22.6L33.86 23.8567C33.9664 23.8856 34.0571 23.9555 34.112 24.051C34.167 24.1466 34.1819 24.2601 34.1533 24.3667L32.9666 28.795C32.6622 29.9313 31.9669 30.9238 31.0031 31.5981C30.0392 32.2724 28.8684 32.5853 27.6966 32.4817C27.1724 33.2905 26.5239 34.0116 25.775 34.6183Z" fill="#2510DF"/>
</svg>
