<svg width="24" height="23" viewBox="0 0 24 23" fill="none" xmlns="http://www.w3.org/2000/svg">
<path d="M0 23L1.687 17.0938C0.645998 15.365 0.0989998 13.4052 0.0999998 11.3955C0.103 5.11271 5.43799 0 11.993 0C15.174 0.000958333 18.16 1.18833 20.406 3.34267C22.6509 5.497 23.8869 8.3605 23.8859 11.4061C23.8829 17.6899 18.548 22.8026 11.993 22.8026C10.003 22.8016 8.04198 22.3234 6.30499 21.4149L0 23ZM6.59698 19.3516C8.27298 20.3052 9.87298 20.8763 11.989 20.8773C17.437 20.8773 21.875 16.628 21.878 11.4042C21.88 6.16975 17.463 1.92625 11.997 1.92433C6.54498 1.92433 2.11 6.17358 2.108 11.3965C2.107 13.5288 2.75899 15.1254 3.85399 16.7957L2.85499 20.2917L6.59698 19.3516ZM17.984 14.1153C17.91 13.9965 17.712 13.9255 17.414 13.7828C17.117 13.64 15.656 12.9509 15.383 12.856C15.111 12.7612 14.913 12.7133 14.714 12.9988C14.516 13.2835 13.946 13.9255 13.773 14.1153C13.6 14.305 13.426 14.329 13.129 14.1862C12.832 14.0434 11.874 13.7435 10.739 12.7727C9.85598 12.0175 9.25898 11.085 9.08598 10.7995C8.91298 10.5148 9.06798 10.3605 9.21598 10.2187C9.34998 10.0912 9.51298 9.88617 9.66198 9.71942C9.81298 9.55458 9.86198 9.43575 9.96198 9.24504C10.061 9.05529 10.012 8.88854 9.93698 8.74575C9.86198 8.60392 9.26798 7.20187 9.02098 6.63167C8.77898 6.07679 8.53398 6.15154 8.35198 6.14292L7.78198 6.13333C7.58398 6.13333 7.26198 6.20425 6.98998 6.48983C6.71798 6.77542 5.94999 7.4635 5.94999 8.86554C5.94999 10.2676 7.01498 11.6217 7.16298 11.8115C7.31198 12.0012 9.25798 14.8781 12.239 16.1115C12.948 16.4048 13.502 16.5801 13.933 16.7114C14.645 16.928 15.293 16.8973 15.805 16.8245C16.376 16.743 17.563 16.1355 17.811 15.4704C18.059 14.8043 18.059 14.2341 17.984 14.1153Z" fill="white"/>
</svg>
