<svg width="24" height="24" viewBox="0 0 24 24" fill="none" xmlns="http://www.w3.org/2000/svg">
<path d="M4.26001 10.147C3.98496 12.2526 3.82107 14.3712 3.76901 16.494C6.64782 17.6966 9.40419 19.1734 12 20.904C14.5962 19.1733 17.3529 17.6965 20.232 16.494C20.1799 14.3712 20.016 12.2526 19.741 10.147M19.741 10.147C20.616 9.85304 21.503 9.58104 22.399 9.33304C19.1356 7.04529 15.652 5.08893 12 3.49304C8.34801 5.08927 4.86441 7.04596 1.60101 9.33404C2.49429 9.58067 3.38062 9.85177 4.25901 10.147C6.92763 11.0443 9.51691 12.1621 12 13.489C14.4828 12.1621 17.0727 11.0442 19.741 10.147ZM6.75001 15C6.94893 15 7.13969 14.921 7.28034 14.7804C7.421 14.6397 7.50001 14.449 7.50001 14.25C7.50001 14.0511 7.421 13.8604 7.28034 13.7197C7.13969 13.5791 6.94893 13.5 6.75001 13.5C6.5511 13.5 6.36034 13.5791 6.21968 13.7197C6.07903 13.8604 6.00001 14.0511 6.00001 14.25C6.00001 14.449 6.07903 14.6397 6.21968 14.7804C6.36034 14.921 6.5511 15 6.75001 15ZM6.75001 15V11.325C8.44675 10.2704 10.1993 9.30831 12 8.44304M4.99301 19.993C5.55099 19.4364 5.99345 18.7751 6.29498 18.0469C6.5965 17.3187 6.75115 16.5382 6.75001 15.75V14.25" stroke="#ACDAD8" stroke-width="1.5" stroke-linecap="round" stroke-linejoin="round"/>
</svg>
