<svg width="800" height="800" viewBox="0 0 800 800" fill="none" xmlns="http://www.w3.org/2000/svg">
<path d="M733.333 66.6667H700V100H733.333V66.6667ZM700 100H666.667V133.333H700V100ZM666.667 133.333H533.333V166.667H666.667V133.333ZM533.333 100H466.667V133.333H533.333V100ZM466.667 66.6667H433.333V100H466.667V66.6667ZM433.333 33.3333H366.667V66.6667H433.333V33.3333ZM366.667 66.6667H333.333V100H366.667V66.6667ZM333.333 100H266.667V133.333H333.333V100ZM266.667 133.333H133.333V166.667H266.667V133.333ZM133.333 100H100V133.333H133.333V100ZM100 66.6667H66.6667V100H100V66.6667ZM100 466.667H66.6667V533.333H100V466.667ZM133.333 533.333H100V600H133.333V533.333ZM166.667 600H133.333V633.333H166.667V600ZM233.333 633.333H166.667V666.667H233.333V633.333ZM300 666.667H233.333V700H300V666.667ZM366.667 700H300V733.333H366.667V700ZM433.333 733.333H366.667V766.667H433.333V733.333ZM500 700H433.333V733.333H500V700ZM566.667 666.667H500V700H566.667V666.667ZM633.333 633.333H566.667V666.667H633.333V633.333ZM666.667 600H633.333V633.333H666.667V600ZM700 533.333H666.667V600H700V533.333ZM733.333 466.667H700V533.333H733.333V466.667ZM766.667 100H733.333V466.667H766.667V100ZM66.6667 100H33.3333V466.667H66.6667V100Z" fill="#914800" fill-opacity="0.08"/>
<path d="M666.667 166.667V200H533.333V166.667H466.667V133.333H433.333V100H366.667V133.333H333.333V166.667H266.667V200H133.333V166.667H100V466.667H133.333V533.333H166.667V600H233.333V633.333H300V666.667H366.667V700H433.333V666.667H500V633.333H566.667V600H633.333V533.333H666.667V466.667H700V166.667H666.667ZM333.333 566.667V500H366.667V400H333.333V300H366.667V266.667H433.333V300H466.667V400H433.333V500H466.667V566.667H333.333Z" fill="#914800" fill-opacity="0.08"/>
</svg>
