<svg width="40" height="40" viewBox="0 0 40 40" fill="none" xmlns="http://www.w3.org/2000/svg">
<path d="M19.9999 7.5C19.2264 7.5 18.4845 7.80729 17.9375 8.35427C17.3905 8.90125 17.0833 9.64312 17.0833 10.4167C17.0833 11.1902 17.3905 11.9321 17.9375 12.4791C18.4845 13.026 19.2264 13.3333 19.9999 13.3333C20.7735 13.3333 21.5153 13.026 22.0623 12.4791C22.6093 11.9321 22.9166 11.1902 22.9166 10.4167C22.9166 9.64312 22.6093 8.90125 22.0623 8.35427C21.5153 7.80729 20.7735 7.5 19.9999 7.5ZM14.5833 10.4167C14.5833 8.98008 15.1539 7.60233 16.1698 6.5865C17.1856 5.57068 18.5633 5 19.9999 5C21.4365 5 22.8143 5.57068 23.8301 6.5865C24.8459 7.60233 25.4166 8.98008 25.4166 10.4167C25.4166 11.8533 24.8459 13.231 23.8301 14.2468C22.8143 15.2627 21.4365 15.8333 19.9999 15.8333C18.5633 15.8333 17.1856 15.2627 16.1698 14.2468C15.1539 13.231 14.5833 11.8533 14.5833 10.4167ZM8.33325 10.8333C7.67021 10.8333 7.03433 11.0967 6.56549 11.5656C6.09664 12.0344 5.83325 12.6703 5.83325 13.3333C5.83325 13.9964 6.09664 14.6323 6.56549 15.1011C7.03433 15.5699 7.67021 15.8333 8.33325 15.8333C8.99629 15.8333 9.63218 15.5699 10.101 15.1011C10.5699 14.6323 10.8333 13.9964 10.8333 13.3333C10.8333 12.6703 10.5699 12.0344 10.101 11.5656C9.63218 11.0967 8.99629 10.8333 8.33325 10.8333ZM3.33325 13.3333C3.33325 12.0073 3.86004 10.7355 4.79772 9.7978C5.7354 8.86012 7.00717 8.33333 8.33325 8.33333C9.65933 8.33333 10.9311 8.86012 11.8688 9.7978C12.8065 10.7355 13.3333 12.0073 13.3333 13.3333C13.3333 14.6594 12.8065 15.9312 11.8688 16.8689C10.9311 17.8066 9.65933 18.3333 8.33325 18.3333C7.00717 18.3333 5.7354 17.8066 4.79772 16.8689C3.86004 15.9312 3.33325 14.6594 3.33325 13.3333ZM29.1666 13.3333C29.1666 12.6703 29.43 12.0344 29.8988 11.5656C30.3677 11.0967 31.0035 10.8333 31.6666 10.8333C32.3296 10.8333 32.9655 11.0967 33.4344 11.5656C33.9032 12.0344 34.1666 12.6703 34.1666 13.3333C34.1666 13.9964 33.9032 14.6323 33.4344 15.1011C32.9655 15.5699 32.3296 15.8333 31.6666 15.8333C31.0035 15.8333 30.3677 15.5699 29.8988 15.1011C29.43 14.6323 29.1666 13.9964 29.1666 13.3333ZM31.6666 8.33333C30.3405 8.33333 29.0687 8.86012 28.1311 9.7978C27.1934 10.7355 26.6666 12.0073 26.6666 13.3333C26.6666 14.6594 27.1934 15.9312 28.1311 16.8689C29.0687 17.8066 30.3405 18.3333 31.6666 18.3333C32.9927 18.3333 34.2644 17.8066 35.2021 16.8689C36.1398 15.9312 36.6666 14.6594 36.6666 13.3333C36.6666 12.0073 36.1398 10.7355 35.2021 9.7978C34.2644 8.86012 32.9927 8.33333 31.6666 8.33333ZM12.4999 21.25C12.4999 19.64 13.8066 18.3333 15.4166 18.3333H24.5833C26.1933 18.3333 27.4999 19.64 27.4999 21.25V27.5C27.4999 29.4891 26.7097 31.3968 25.3032 32.8033C23.8967 34.2098 21.989 35 19.9999 35C18.0108 35 16.1031 34.2098 14.6966 32.8033C13.2901 31.3968 12.4999 29.4891 12.4999 27.5V21.25ZM15.4166 20.8333C15.3061 20.8333 15.2001 20.8772 15.122 20.9554C15.0438 21.0335 14.9999 21.1395 14.9999 21.25V27.5C14.9999 28.8261 15.5267 30.0979 16.4644 31.0355C17.4021 31.9732 18.6738 32.5 19.9999 32.5C21.326 32.5 22.5978 31.9732 23.5355 31.0355C24.4731 30.0979 24.9999 28.8261 24.9999 27.5V21.25C24.9999 21.1395 24.956 21.0335 24.8779 20.9554C24.7997 20.8772 24.6938 20.8333 24.5833 20.8333H15.4166ZM11.0166 19.9633C10.8955 20.3733 10.8344 20.8022 10.8333 21.25V22.6L6.14325 23.8567C6.03651 23.8852 5.94547 23.9549 5.89015 24.0506C5.83483 24.1462 5.81976 24.2599 5.84825 24.3667L7.03492 28.795C7.33929 29.931 8.03432 30.9233 8.99786 31.5975C9.96139 32.2718 11.1318 32.5849 12.3033 32.4817C12.8283 33.2917 13.4783 34.0133 14.2249 34.6183C13.255 34.9399 12.2297 35.0599 11.2117 34.971C10.1938 34.8821 9.20478 34.586 8.30536 34.1011C7.40593 33.6162 6.61508 32.9527 5.98133 32.1511C5.34758 31.3496 4.8843 30.427 4.61992 29.44L3.43325 25.0133C3.23317 24.2663 3.33796 23.4704 3.72457 22.8006C4.11119 22.1309 4.74798 21.642 5.49492 21.4417L11.0166 19.9633ZM25.7749 34.6183C25.9138 34.665 26.0544 34.7072 26.1966 34.745C28.1179 35.2596 30.1649 34.99 31.8874 33.9955C33.6099 33.0009 34.8668 31.3629 35.3816 29.4417L36.5683 25.015C36.6676 24.645 36.693 24.2591 36.6432 23.8792C36.5933 23.4994 36.4691 23.1331 36.2776 22.8013C36.0862 22.4694 35.8312 22.1786 35.5274 21.9453C35.2235 21.712 34.8766 21.5409 34.5066 21.4417L28.9833 19.9617C29.1044 20.3728 29.1655 20.8022 29.1666 21.25V22.6L33.8599 23.8567C33.9664 23.8856 34.057 23.9555 34.112 24.051C34.167 24.1466 34.1818 24.2601 34.1533 24.3667L32.9666 28.795C32.6622 29.9313 31.9669 30.9238 31.003 31.5981C30.0391 32.2724 28.8683 32.5853 27.6966 32.4817C27.1723 33.2905 26.5238 34.0116 25.7749 34.6183Z" fill="#2510DF"/>
</svg>
