<svg width="20" height="20" viewBox="0 0 20 20" fill="none" xmlns="http://www.w3.org/2000/svg">
<path d="M14.1667 16.6666H18.3334V14.9999C18.3334 13.6192 17.2141 12.4999 15.8334 12.4999C15.0371 12.4999 14.3277 12.8723 13.8699 13.4523M14.1667 16.6666H5.83341M14.1667 16.6666V14.9999C14.1667 14.4531 14.0614 13.9308 13.8699 13.4523M5.83341 16.6666H1.66675V14.9999C1.66675 13.6192 2.78604 12.4999 4.16675 12.4999C4.96309 12.4999 5.67246 12.8723 6.13029 13.4523M5.83341 16.6666V14.9999C5.83341 14.4531 5.93877 13.9308 6.13029 13.4523M6.13029 13.4523C6.74467 11.9174 8.24576 10.8333 10.0001 10.8333C11.7544 10.8333 13.2555 11.9174 13.8699 13.4523M12.5001 5.83325C12.5001 7.21396 11.3808 8.33325 10.0001 8.33325C8.61937 8.33325 7.50008 7.21396 7.50008 5.83325C7.50008 4.45254 8.61937 3.33325 10.0001 3.33325C11.3808 3.33325 12.5001 4.45254 12.5001 5.83325ZM17.5001 8.33325C17.5001 9.25373 16.7539 9.99992 15.8334 9.99992C14.9129 9.99992 14.1667 9.25373 14.1667 8.33325C14.1667 7.41278 14.9129 6.66659 15.8334 6.66659C16.7539 6.66659 17.5001 7.41278 17.5001 8.33325ZM5.83341 8.33325C5.83341 9.25373 5.08722 9.99992 4.16675 9.99992C3.24627 9.99992 2.50008 9.25373 2.50008 8.33325C2.50008 7.41278 3.24627 6.66659 4.16675 6.66659C5.08722 6.66659 5.83341 7.41278 5.83341 8.33325Z" stroke="white" stroke-width="2" stroke-linecap="round" stroke-linejoin="round"/>
</svg>
