<svg width="20" height="20" viewBox="0 0 20 20" fill="none" xmlns="http://www.w3.org/2000/svg">
<g clip-path="url(#clip0_403_5540)">
<path d="M9.99998 0.264145C10.7044 0.264145 11.3333 0.440245 11.8868 0.792446C12.4402 1.14465 12.8805 1.61006 13.2075 2.18867C13.8365 2.01257 14.478 1.99999 15.1321 2.15094C15.761 2.27672 16.327 2.59119 16.8302 3.09433C17.3333 3.59748 17.6478 4.1761 17.7736 4.83018C17.9245 5.45911 17.9119 6.08804 17.7358 6.71698C18.3144 7.04402 18.7799 7.48427 19.1321 8.03773C19.4843 8.59119 19.6604 9.22012 19.6604 9.92452C19.6604 10.6289 19.4843 11.2579 19.1321 11.8113C18.7799 12.3648 18.3144 12.805 17.7358 13.1321C17.9119 13.761 17.9245 14.4025 17.7736 15.0566C17.6478 15.6855 17.3333 16.2516 16.8302 16.7547C16.327 17.2579 15.761 17.5723 15.1321 17.6981C14.478 17.8491 13.8365 17.8365 13.2075 17.6604C12.8805 18.239 12.4402 18.7044 11.8868 19.0566C11.3333 19.4088 10.7044 19.5849 9.99998 19.5849C9.29557 19.5849 8.66664 19.4088 8.11318 19.0566C7.55973 18.7044 7.11947 18.239 6.79243 17.6604C6.1635 17.8365 5.52199 17.8491 4.8679 17.6981C4.23897 17.5723 3.67293 17.2579 3.16979 16.7547C2.66664 16.2516 2.35218 15.6855 2.22639 15.0566C2.07545 14.4025 2.08803 13.761 2.26413 13.1321C1.68551 12.805 1.2201 12.3648 0.867902 11.8113C0.5157 11.2579 0.3396 10.6289 0.3396 9.92452C0.3396 9.22012 0.5157 8.59119 0.867902 8.03773C1.2201 7.48427 1.68551 7.04402 2.26413 6.71698C2.08803 6.08804 2.07545 5.44654 2.22639 4.79245C2.35218 4.16352 2.66664 3.59748 3.16979 3.09433C3.67293 2.59119 4.25155 2.27672 4.90564 2.15094C5.53457 1.99999 6.1635 2.01257 6.79243 2.18867C7.11947 1.61006 7.55973 1.14465 8.11318 0.792446C8.66664 0.440245 9.29557 0.264145 9.99998 0.264145ZM14.2641 8.15094C14.6163 7.72326 14.6163 7.29559 14.2641 6.86792C13.8365 6.51572 13.4088 6.51572 12.9811 6.86792L8.79243 11.0566L7.01885 9.28301C6.59117 8.93081 6.1635 8.93081 5.73583 9.28301C5.38363 9.71069 5.38363 10.1384 5.73583 10.566L8.15092 12.9811C8.57859 13.3333 9.00627 13.3333 9.43394 12.9811L14.2641 8.15094Z" fill="#F3EDE8"/>
</g>
<defs>
<clipPath id="clip0_403_5540">
<rect width="20" height="20" fill="white" transform="matrix(1 0 0 -1 0 20)"/>
</clipPath>
</defs>
</svg>
