<svg width="606" height="606" viewBox="0 0 606 606" fill="none" xmlns="http://www.w3.org/2000/svg">
<path d="M50.5 555.5H75.75V530.25H50.5V555.5ZM75.75 530.25H101V505H75.75V530.25ZM101 505H202V479.75H101V505ZM202 530.25H252.5V505H202V530.25ZM252.5 555.5H277.75V530.25H252.5V555.5ZM277.75 580.75H328.25V555.5H277.75V580.75ZM328.25 555.5H353.5V530.25H328.25V555.5ZM353.5 530.25H404V505H353.5V530.25ZM404 505H505V479.75H404V505ZM505 530.25H530.25V505H505V530.25ZM530.25 555.5H555.5V530.25H530.25V555.5ZM530.25 252.5H555.5V202H530.25V252.5ZM505 202H530.25V151.5H505V202ZM479.75 151.5H505V126.25H479.75V151.5ZM429.25 126.25H479.75V101H429.25V126.25ZM378.75 101H429.25V75.75H378.75V101ZM328.25 75.75H378.75V50.5H328.25V75.75ZM277.75 50.5H328.25V25.25H277.75V50.5ZM227.25 75.75H277.75V50.5H227.25V75.75ZM176.75 101H227.25V75.75H176.75V101ZM126.25 126.25H176.75V101H126.25V126.25ZM101 151.5H126.25V126.25H101V151.5ZM75.75 202H101V151.5H75.75V202ZM50.5 252.5H75.75V202H50.5V252.5ZM25.25 530.25H50.5V252.5H25.25V530.25ZM555.5 530.25H580.75V252.5H555.5V530.25Z" fill="#4D77FF" fill-opacity="0.24"/>
<path d="M101 479.75V454.5H202V479.75H252.5V505H277.75V530.25H328.25V505H353.5V479.75H404V454.5H505V479.75H530.25V252.5H505V202H479.75V151.5H429.25V126.25H378.75V101H328.25V75.75H277.75V101H227.25V126.25H176.75V151.5H126.25V202H101V252.5H75.75V479.75H101ZM353.5 176.75V227.25H328.25V303H353.5V378.75H328.25V404H277.75V378.75H252.5V303H277.75V227.25H252.5V176.75H353.5Z" fill="#4D77FF" fill-opacity="0.24"/>
</svg>
