<svg width="124" height="124" viewBox="0 0 124 124" fill="none" xmlns="http://www.w3.org/2000/svg">
<path d="M113.667 10.3332H108.5V15.4998H113.667V10.3332ZM108.5 15.4998H103.333V20.6665H108.5V15.4998ZM103.333 20.6665H82.6668V25.8332H103.333V20.6665ZM82.6668 15.4998H72.3334V20.6665H82.6668V15.4998ZM72.3334 10.3332H67.1668V15.4998H72.3334V10.3332ZM67.1668 5.1665H56.8334V10.3332H67.1668V5.1665ZM56.8334 10.3332H51.6668V15.4998H56.8334V10.3332ZM51.6668 15.4998H41.3334V20.6665H51.6668V15.4998ZM41.3334 20.6665H20.6667V25.8332H41.3334V20.6665ZM20.6667 15.4998H15.5001V20.6665H20.6667V15.4998ZM15.5001 10.3332H10.3334V15.4998H15.5001V10.3332ZM15.5001 72.3332H10.3334V82.6665H15.5001V72.3332ZM20.6667 82.6665H15.5001V92.9998H20.6667V82.6665ZM25.8334 92.9998H20.6667V98.1665H25.8334V92.9998ZM36.1667 98.1665H25.8334V103.333H36.1667V98.1665ZM46.5001 103.333H36.1667V108.5H46.5001V103.333ZM56.8334 108.5H46.5001V113.667H56.8334V108.5ZM67.1668 113.667H56.8334V118.833H67.1668V113.667ZM77.5001 108.5H67.1668V113.667H77.5001V108.5ZM87.8334 103.333H77.5001V108.5H87.8334V103.333ZM98.1668 98.1665H87.8334V103.333H98.1668V98.1665ZM103.333 92.9998H98.1668V98.1665H103.333V92.9998ZM108.5 82.6665H103.333V92.9998H108.5V82.6665ZM113.667 72.3332H108.5V82.6665H113.667V72.3332ZM118.833 15.4998H113.667V72.3332H118.833V15.4998ZM10.3334 15.4998H5.16675V72.3332H10.3334V15.4998Z" fill="#2D5C18"/>
<path d="M103.333 25.8333V31H82.6667V25.8333H72.3333V20.6667H67.1667V15.5H56.8333V20.6667H51.6667V25.8333H41.3333V31H20.6667V25.8333H15.5V72.3333H20.6667V82.6667H25.8333V93H36.1667V98.1667H46.5V103.333H56.8333V108.5H67.1667V103.333H77.5V98.1667H87.8333V93H98.1667V82.6667H103.333V72.3333H108.5V25.8333H103.333ZM51.6667 87.8333V77.5H56.8333V62H51.6667V46.5H56.8333V41.3333H67.1667V46.5H72.3333V62H67.1667V77.5H72.3333V87.8333H51.6667Z" fill="#2D5C18"/>
</svg>
